<svg xmlns="http://www.w3.org/2000/svg" xmlns:xlink="http://www.w3.org/1999/xlink" viewBox="0 0 435.68 415.3"><defs><style>.cls-1{fill:none;}.cls-2{clip-path:url(#clip-path);}.cls-3{fill:url(#radial-gradient);}.cls-4{fill:#223c72;}.cls-5{fill:#efebe7;}.cls-6{fill:#ef3827;}.cls-7{fill:#303f66;}</style><clipPath id="clip-path" transform="translate(20.38)"><path class="cls-1" d="M197.3,0C108.67,0,28.08,60.11,5.83,150-20.38,255.88,44.2,362.92,150,389.1s212.88-38.36,239.07-144.21S350.76,32,244.9,5.83A198,198,0,0,0,197.32,0h0"/></clipPath><radialGradient id="radial-gradient" cx="-3310.98" cy="2259.47" r="1" gradientTransform="matrix(197.47, 0, 0, -197.47, 654029.23, 446369.08)" gradientUnits="userSpaceOnUse"><stop offset="0" stop-color="#fff"/><stop offset="0.78" stop-color="#fff"/><stop offset="0.82" stop-color="#f9f8f8"/><stop offset="0.88" stop-color="#e9e6e3"/><stop offset="0.94" stop-color="#cfc8c2"/><stop offset="1" stop-color="#b6aba1"/></radialGradient></defs><g id="Layer_2" data-name="Layer 2"><g id="Capa_1" data-name="Capa 1"><g class="cls-2"><rect class="cls-3" width="435.68" height="415.3"/></g><path class="cls-4" d="M5.83,150C32,44.17,139.07-20.37,244.9,5.83S415.3,139,389.11,244.89,255.89,415.3,150,389.1-20.38,255.88,5.83,150" transform="translate(20.38)"/><path class="cls-5" d="M337.52,58.27l-79.39,52.92V9.6c-4.33-1.39-8.74-2.66-13.23-3.77A196.44,196.44,0,0,0,136.29,9.75V111.2L57.21,58.49a196.19,196.19,0,0,0-42.82,65.08l20.94,14H9.38q-2,6.15-3.55,12.51A196.56,196.56,0,0,0,10,259.37H35.85L15.13,273.18a198.49,198.49,0,0,0,43.46,64.63L136.29,286v99.13q6.75,2.2,13.75,3.94a196.48,196.48,0,0,0,108.09-3.75V286l78,52a196.24,196.24,0,0,0,43.57-64.56l-21.15-14.09H385c1.55-4.74,2.95-9.56,4.16-14.48a196.45,196.45,0,0,0-3.51-107.36H359.09l21.35-14.23a198.28,198.28,0,0,0-42.92-65" transform="translate(20.38)"/><path class="cls-6" d="M105.92,137.53,32.61,88.77a196.45,196.45,0,0,0-13.18,23.3L57.7,137.53ZM362,88.39a196.75,196.75,0,0,0-16.26-21.27l-87.63,58.27v12.14h30ZM33.16,306.9a196.53,196.53,0,0,0,16.3,21.22l86.83-57.75v-11H104.64Zm358.73-144H232.76V3.23a196.38,196.38,0,0,0-71.1,0V162.9H3.11A196.07,196.07,0,0,0,3.41,234H161.66V391.6a196.23,196.23,0,0,0,71.1.15V234H391.49a196.55,196.55,0,0,0,.4-71.06M289.84,259.37l71.84,47.77A196.23,196.23,0,0,0,375,283.92l-36.93-24.55Z" transform="translate(20.38)"/><path class="cls-7" d="M258.13,30.15h0V43a23,23,0,0,0,1.19-6.89,14.56,14.56,0,0,0-1.19-5.92" transform="translate(20.38)"/></g></g></svg>